<svg height="512" viewBox="0 0 512 512" width="512" xmlns="http://www.w3.org/2000/svg" xmlns:xlink="http://www.w3.org/1999/xlink"><linearGradient id="New_Gradient_Swatch_13" gradientUnits="userSpaceOnUse" x1="115.514" x2="382.456" y1="388.485" y2="121.544"><stop offset="0" stop-color="#d46669"/><stop offset="1" stop-color="#dd888a"/></linearGradient><linearGradient id="New_Gradient_Swatch_22" gradientUnits="userSpaceOnUse" x1="393.373" x2="438.627" y1="294.627" y2="249.373"><stop offset=".011" stop-color="#dcdce3"/><stop offset="1" stop-color="#ededf1"/></linearGradient><linearGradient id="New_Gradient_Swatch_3" gradientUnits="userSpaceOnUse" x1="384.902" x2="447.098" y1="303.098" y2="240.902"><stop offset=".011" stop-color="#606082"/><stop offset="1" stop-color="#83839e"/></linearGradient><linearGradient id="New_Gradient_Swatch_22-2" x1="89.373" x2="134.627" xlink:href="#New_Gradient_Swatch_22" y1="294.627" y2="249.373"/><linearGradient id="New_Gradient_Swatch_3-2" x1="80.902" x2="143.098" xlink:href="#New_Gradient_Swatch_3" y1="303.098" y2="240.902"/><linearGradient id="New_Gradient_Swatch_3-3" x1="124.687" x2="259.313" xlink:href="#New_Gradient_Swatch_3" y1="249.308" y2="114.682"/><g id="_06-sport_car" data-name="06-sport car"><g id="gradient"><path d="m506.4 250.009c-1.273-2.209-31.793-54.009-90.4-54.009-56.626 0-86.215-12.689-90.065-14.46-6.557-4.283-52.575-33.54-85.935-33.54h-96c-32.395 0-76.725 27.588-85.268 33.107l-46.527 15.509a12 12 0 0 0 -8.205 11.384v64a12 12 0 0 0 9.646 11.767l80 16a12.007 12.007 0 0 0 2.354.233h400a12 12 0 0 0 12-12v-32a12.011 12.011 0 0 0 -1.6-5.991z" fill="url(#New_Gradient_Swatch_13)"/><circle cx="416" cy="272" fill="url(#New_Gradient_Swatch_22)" r="32"/><path d="m416 316a44 44 0 1 1 44-44 44.049 44.049 0 0 1 -44 44zm0-64a20 20 0 1 0 20 20 20.023 20.023 0 0 0 -20-20z" fill="url(#New_Gradient_Swatch_3)"/><circle cx="112" cy="272" fill="url(#New_Gradient_Swatch_22-2)" r="32"/><path d="m112 316a44 44 0 1 1 44-44 44.049 44.049 0 0 1 -44 44zm0-64a20 20 0 1 0 20 20 20.023 20.023 0 0 0 -20-20z" fill="url(#New_Gradient_Swatch_3-2)"/><path d="m144 148c-35.1 0-84.215 32.39-86.626 34a11.967 11.967 0 0 0 6.626 2h48c29.6 0 75.61 15.187 76.205 15.384a12 12 0 0 0 3.795.616h96a12.006 12.006 0 0 0 5.367-1.267l32-16a11.919 11.919 0 0 0 1.259-.738c-2.408-1.6-51.523-34-86.626-34z" fill="url(#New_Gradient_Swatch_3-3)"/><g fill="#d46669"><circle cx="336" cy="256" r="12"/><circle cx="288" cy="256" r="12"/><path d="m240 244h-48a12 12 0 0 0 0 24h48a12 12 0 0 0 0-24z"/></g></g></g></svg>