<?xml version="1.0" encoding="utf-8"?>
<svg id="master-artboard" viewBox="0 0 1400 980" version="1.1" xmlns="http://www.w3.org/2000/svg" x="0px" y="0px" width="1400px" height="980px" enable-background="new 0 0 1400 980">

<path id="bottom_shadow_5_" opacity="0.5" fill="#B3B3B3" d="M1272.9,913.2c0,2.8-48.9,5.1-236.7,5.1c-190,0-236.7-2.3-236.7-5.1&#10;&#9;s106-2.5,236.7-2.5S1272.9,910.4,1272.9,913.2z"/>
<g id="open_cargo_cab">
	<g>
		<path d="M 803 834.099976 H 1214.700012 V 884.799976 H 803 V 834.099976 Z"/>
		<path d="M 986.299988 797.900024 H 1005.999989 V 876.900024 H 986.299988 V 797.900024 Z" fill="#874A2B"/>
		<path fill="#EAE4C3" d="M817.5,795h2.2v26.5h-9.3C812,815.3,815.4,802.7,817.5,795z"/>
		<path fill="#C2693C" d="M844.4,831.3c-14.8,2.1-27.5,10.7-35.2,22.8v-24.7h14.5c2.2,0,3.9-1.8,3.9-3.9v-34.4&#10;&#9;&#9;&#9;c0-2.2-1.8-3.9-3.9-3.9h-4c1.4-5.1,2.4-8.9,2.7-9.9c2.3-0.9,14.8-5.7,22.1-8.5V831.3z"/>
		<path fill="#DD7845" d="M967.4,876.9h-66.5c-1.9-23.6-20.1-42.7-43.3-45.6v0l-5.3-0.6V767h115.1V876.9z"/>
		<path d="M 967.4000244140625 759.0999755859375 L 856.4000244140625 759.0999755859375 L 895 710.0999755859375 L 895 710.0999755859375 L 967.4000244140625 710.0999755859375 Z" fill="#55848A"/>
		<path fill="#C2693C" d="M971.3,702.2h-66.8c4.3-2.1,10.6-3.9,19.3-3.9c0,0,55.6,0,62.5,0v178.6l-11.1,0V706.2&#10;&#9;&#9;&#9;C975.2,704,973.5,702.2,971.3,702.2z"/>
		<path fill="#70503E" d="M1255.7,861.7c-2,0-3.9,0-3.9,0h-35.8c0-0.6-0.2-1.2-0.5-1.8l-16.7-27.2c-0.7-1.2-2-1.9-3.4-1.9h-56.5&#10;&#9;&#9;&#9;c-1.4,0-2.6,0.7-3.4,1.9l-16.7,27.2c-0.4,0.6-0.6,1.3-0.6,2.1c0,0,0,10,0,14.9l-112.2,0v-71.1h241.9v40.2h-5.1v7.9c0,0,11,0,13,0&#10;&#9;&#9;&#9;V861.7z"/>
		<path fill="#473327" d="M1024.1,875.7c0,0.2-0.1,0.5-0.4,0.5c-1.7,0.2-3.4,0.4-5,0.7l-5.8,0c3.4-0.6,7-1.1,10.8-1.5&#10;&#9;&#9;&#9;C1023.9,875.3,1024.1,875.5,1024.1,875.7z M1035.9,876.3c-2.9,0.1-5.6,0.3-8,0.6l20.1,0C1043.3,876.5,1039,876.2,1035.9,876.3z&#10;&#9;&#9;&#9; M1067,876.1c0,0.2,0.1,0.5,0.4,0.5c0,0,0.6,0.1,1.7,0.3l6,0c-4.4-0.6-7.4-1.1-7.5-1.1C1067.3,875.7,1067.1,875.9,1067,876.1z&#10;&#9;&#9;&#9; M1088.5,874.7c-14.4-1.8-43.5-1-43.8-1c-0.2,0-0.4,0.2-0.4,0.5c0,0.2,0.2,0.5,0.5,0.4c0.3,0,29.4-0.8,43.7,1&#10;&#9;&#9;&#9;c7.4,0.9,16.2,1.1,25.5,1.3c0,0,0.1,0,0.1,0l4.3,0c0-0.2,0-0.5,0-0.8c-1.5,0-2.9-0.1-4.3-0.1&#10;&#9;&#9;&#9;C1104.5,875.8,1095.8,875.6,1088.5,874.7z M1048.7,871c-20.3,0.6-32.8,2.2-42.7,4v0.9c9.9-1.8,22.4-3.5,42.7-4&#10;&#9;&#9;&#9;c23.2-0.6,50,0.5,69.5,1.6c0-0.3,0-0.6,0-0.9C1098.7,871.5,1071.9,870.4,1048.7,871z M1035.8,868.9c-13.1,0.7-22.3,1.7-29.9,2.9&#10;&#9;&#9;&#9;v0.9c7.5-1.1,16.7-2.1,29.9-2.9c32.1-1.7,51.6-1,70.3,0c3.6,0.2,7.7,0.4,12,0.7c0-0.3,0-0.6,0-0.9c-4.3-0.3-8.4-0.5-12-0.7&#10;&#9;&#9;&#9;C1087.5,867.9,1068,867.1,1035.8,868.9z M1006,869v0.9c24.3-3.2,44.7-3.9,71-3.9c11.5,0,26.6,0.7,41.2,1.7c0-0.3,0-0.6,0-0.9&#10;&#9;&#9;&#9;c-14.6-0.9-29.7-1.7-41.2-1.7C1050.7,865.1,1030.2,865.8,1006,869z M1215.4,859.8c7.1,0.2,12.6,0.9,17.5,1.8h4.4&#10;&#9;&#9;&#9;c-6.1-1.3-12.8-2.5-22.5-2.7L1215.4,859.8z M1077.7,862.5c-5.6,0-10.8-0.1-15.1-0.1c-14.1,0-35.2,1.1-56.6,3.5v0.9&#10;&#9;&#9;&#9;c21.4-2.4,42.6-3.5,56.6-3.5c4.4,0,9.5,0,15.1,0.1c12.6,0.1,27.4,0.2,40.5-0.1c0-0.4,0-0.7,0-0.9&#10;&#9;&#9;&#9;C1105.1,862.7,1090.3,862.6,1077.7,862.5z M1212.9,855.9l0.6,0.9c15.1,0.7,27.5,3,36.9,4.8c0.1,0,0.1,0,0.2,0h1.2c0,0,1.8,0,3.6,0&#10;&#9;&#9;&#9;c-1.5-0.3-3.1-0.6-4.8-0.9C1241,858.9,1228.4,856.5,1212.9,855.9z M1016.7,863.5C1016.7,863.5,1016.7,863.5,1016.7,863.5&#10;&#9;&#9;&#9;c0.2,0,0.4-0.2,0.5-0.4c0-0.2-0.2-0.4-0.4-0.5c-4.1-0.1-7.7,0-10.7,0.1v0.9C1009,863.5,1012.6,863.4,1016.7,863.5z M1232.3,854.3&#10;&#9;&#9;&#9;c-7.7-0.8-15.1-1.6-21.7-2.1l0.6,0.9c6.4,0.5,13.5,1.2,21,2c7.7,0.8,15.7,1.6,23.5,2.2v-0.9C1247.9,855.9,1240,855.1,1232.3,854.3&#10;&#9;&#9;&#9;z M1085.6,856.2c-14.7,0.6-21.7,1.3-28.4,2c-5.3,0.6-10.8,1.2-20.2,1.6c-12.8,0.7-21.4,0.5-31.1,0v0.9c5.3,0.3,10.2,0.5,15.7,0.5&#10;&#9;&#9;&#9;c4.6,0,9.6-0.1,15.5-0.4c9.4-0.5,14.9-1.1,20.2-1.6c6.7-0.7,13.6-1.5,28.3-2c11.7-0.4,19.2-0.4,25.8-0.5c3.3,0,6.3,0,9.4-0.1&#10;&#9;&#9;&#9;l0.6-0.9c-3.3,0.1-6.5,0.1-10,0.1C1104.8,855.8,1097.3,855.8,1085.6,856.2z M1105,860.3c-10.7-0.2-36.7-0.4-48.5,0&#10;&#9;&#9;&#9;c-0.2,0-0.4,0.2-0.4,0.5c0,0.2,0.2,0.4,0.4,0.4c0,0,0,0,0,0c11.7-0.4,37.7-0.2,48.4,0c1.2,0,2.5,0,3.9,0c2.9,0,6.1-0.1,9.4-0.2&#10;&#9;&#9;&#9;c0.1-0.3,0.2-0.6,0.3-0.9C1113.7,860.3,1109,860.4,1105,860.3z M1093,858c-0.2,0-0.4,0.2-0.4,0.4c0,0.2,0.2,0.4,0.4,0.4&#10;&#9;&#9;&#9;c0,0,0.8,0,2.2,0c4.5,0,15.2,0,24.3-0.2l0.6-0.9c-9.2,0.2-20.2,0.2-24.9,0.2C1093.8,858,1093,858,1093,858z M1255.7,860v-0.7&#10;&#9;&#9;&#9;c-0.1,0.1-0.2,0.2-0.3,0.3C1255.4,859.8,1255.5,859.9,1255.7,860z M1242.7,852.6v-0.9c-0.3,0-0.5-0.1-0.5-0.1&#10;&#9;&#9;&#9;c-13.5-1.5-24.5-2.4-33.7-2.9l0.6,0.9c9.1,0.5,19.9,1.4,33.1,2.9C1242.2,852.5,1242.4,852.5,1242.7,852.6z M1102.1,852.6&#10;&#9;&#9;&#9;c-11.1-0.1-32.1-0.1-48.6,1.7l-2.7,0.3c-12.4,1.3-25.2,2.7-44.8,1.9v0.9c4.1,0.2,8,0.3,11.6,0.3c13.5,0,23.5-1.1,33.3-2.1l2.7-0.3&#10;&#9;&#9;&#9;c16.5-1.8,37.4-1.8,48.5-1.7c5.3,0,12.8-0.2,21-0.5l0.5-0.9C1115.2,852.4,1107.5,852.7,1102.1,852.6z M1095.8,849.5&#10;&#9;&#9;&#9;c-13,0-26.4,0-51.2,2.3c-21.9,2-27.5,1.9-38.6,1.1v0.9c4.5,0.3,8.2,0.6,12.4,0.6c6.1,0,13.4-0.4,26.3-1.6&#10;&#9;&#9;&#9;c24.8-2.3,38.2-2.3,51.1-2.3c3.1,0,6.1,0,9.2,0c4.7,0,11.8-0.5,20.3-1.1l0.6-0.9c-8.8,0.6-16.1,1.1-20.9,1.2&#10;&#9;&#9;&#9;C1101.9,849.5,1098.9,849.5,1095.8,849.5z M1242.7,848.5v-0.9c-1.6-0.2-3.2-0.4-4.7-0.6c-8.5-1.1-16.6-2.2-32.2-2.5l0.6,0.9&#10;&#9;&#9;&#9;c15.1,0.4,23.1,1.4,31.5,2.5C1239.5,848.1,1241.1,848.3,1242.7,848.5z M1027.6,850.7c0.2,0,0.4-0.2,0.4-0.5c0-0.2-0.2-0.4-0.4-0.4&#10;&#9;&#9;&#9;c0,0,0,0,0,0c-13.6,0.6-17.6,0.2-21.6-0.7v0.9c2.7,0.6,5.5,1,11.2,1C1019.9,851,1023.3,850.9,1027.6,850.7z M1039.4,845.3&#10;&#9;&#9;&#9;c-1.1,1.2-7.6,2.7-17.6,3.1c-2.7,0.1-5,0.2-6.9,0.2c-6.3,0-8.3-0.6-8.9-2.2c-0.2-0.5-0.1-1.1,0.2-1.5c1.4-2,7.5-3.1,18-3.4&#10;&#9;&#9;&#9;c13.3-0.3,15.1,1.7,15.3,3.2C1039.6,844.9,1039.6,845.1,1039.4,845.3z M1038.8,844.7c-0.1-0.7-1.7-2.7-14.4-2.3&#10;&#9;&#9;&#9;c-13.5,0.3-16.6,2-17.3,3c-0.2,0.2-0.2,0.5-0.1,0.8c0.5,1.5,4.1,1.8,14.9,1.4C1033,847.1,1038.4,845.4,1038.8,844.7z&#10;&#9;&#9;&#9; M1034.1,843.8c-3.2-1.4-20,0.7-20.7,0.8c-0.2,0-0.4,0.3-0.4,0.5c0,0.2,0.2,0.4,0.5,0.4c4.7-0.6,17.5-1.9,20.2-0.9&#10;&#9;&#9;&#9;c-1.4,0.4-5.9,0.7-10,0.8c-0.2,0-0.4,0.2-0.4,0.5c0,0.2,0.2,0.4,0.4,0.4c0,0,0,0,0,0c10.9-0.3,11.1-1.2,11.1-1.6&#10;&#9;&#9;&#9;C1035,844.1,1034.4,843.9,1034.1,843.8z M1032.1,850.3C1032.1,850.3,1032.1,850.3,1032.1,850.3c5.3-0.1,22.8-0.6,23.8-2.7&#10;&#9;&#9;&#9;c0.2-0.5,0.1-0.9,0-1.2c-0.7-1.3-3.9-1.8-9.8-2.6l-2.2-0.3c-0.3,0-0.5,0.1-0.5,0.4c0,0.2,0.1,0.5,0.4,0.5l2.2,0.3&#10;&#9;&#9;&#9;c4.4,0.6,8.6,1.1,9.1,2.1c0,0.1,0.1,0.2,0,0.4c-0.7,1.1-12.3,2-23,2.2c-0.2,0-0.4,0.2-0.4,0.5&#10;&#9;&#9;&#9;C1031.7,850.2,1031.9,850.3,1032.1,850.3z M1052.6,843.1c5.3,1.4,10.8,2.9,19.2,3.7c4.2,0.4,8.8,0.5,13.5,0.5&#10;&#9;&#9;&#9;c16.3,0,33-1.7,33.2-1.7c0.2,0,0.4-0.2,0.4-0.5c0-0.2-0.2-0.4-0.5-0.4c-0.3,0-27.8,2.9-46.5,1.2c-8.4-0.7-13.8-2.2-19.1-3.6&#10;&#9;&#9;&#9;c-6.8-1.8-13.3-3.6-25.2-3.7c-9.5,0-15.8,0.8-21.6,1.7v0.9c5.8-0.9,12.1-1.8,21.6-1.7C1039.4,839.5,1045.8,841.2,1052.6,843.1z&#10;&#9;&#9;&#9; M1125.1,844.5c0,0.2,0.2,0.4,0.5,0.4c0.1,0,1-0.1,2.6-0.2l0.6-0.9c-2,0.1-3.2,0.2-3.2,0.2C1125.2,844,1125.1,844.2,1125.1,844.5z&#10;&#9;&#9;&#9; M1247.8,844.4c-13.6-1.6-29.4-3-44.2-3.5l0.5,0.9c14.7,0.5,30.2,1.9,43.6,3.5V844.4z M1247.8,840.9V840&#10;&#9;&#9;&#9;c-3.8-0.6-7.8-1.1-11.7-1.4c-8.6-0.6-21.1-1-34.5-1.1l0.5,0.9c13.1,0.1,25.4,0.5,33.9,1.1C1240,839.8,1244,840.3,1247.8,840.9z&#10;&#9;&#9;&#9; M1115.6,841.3c-13.7,0.8-32.5,1.9-46.2-1.1c-1.6-0.4-3.2-0.7-4.8-1.1c-11.4-2.6-21.2-4.8-34.8-4.8c-11.4,0-16.6,0.8-22.6,1.7&#10;&#9;&#9;&#9;c-0.4,0.1-0.8,0.1-1.3,0.2v0.9c0.5-0.1,0.9-0.1,1.4-0.2c5.9-0.9,11.1-1.7,22.4-1.7c13.5,0,23.3,2.2,34.6,4.8&#10;&#9;&#9;&#9;c1.6,0.4,3.2,0.7,4.8,1.1c13.9,3.1,32.7,2,46.5,1.2c4.1-0.2,8.8-0.5,14-0.9c0.2,0,0.4,0,0.6,0l0.6-0.9c-0.4,0-0.8,0.1-1.2,0.1&#10;&#9;&#9;&#9;C1124.5,840.7,1119.8,841,1115.6,841.3z M1093,838.5c-10.7-0.2-16-1.6-22.1-3.1c-6-1.5-12.8-3.2-26.3-4.2&#10;&#9;&#9;&#9;c-17.6-1.2-22.9-0.7-34.6,0.3c-1.3,0.1-2.6,0.2-4,0.4v0.9c1.5-0.1,2.8-0.3,4.1-0.4c11.7-1.1,17-1.5,34.5-0.3&#10;&#9;&#9;&#9;c13.4,0.9,20.1,2.6,26.1,4.1c6.2,1.6,11.5,2.9,22.3,3.2c1.4,0,2.7,0,4.1,0c10.9,0,21.3-1,32.2-2c1.1-0.1,2.3-0.2,3.4-0.3l0.6-0.9&#10;&#9;&#9;&#9;c-1.4,0.1-2.8,0.3-4.1,0.4C1117,837.7,1105.5,838.8,1093,838.5z M1247.8,832.5v-0.9c-3.6,0.4-7.6,0.7-11.9,0.9&#10;&#9;&#9;&#9;c-9.7,0.5-23,0.8-36.7,1.1l0.5,0.9c13.5-0.2,26.7-0.5,36.2-1.1C1240.3,833.2,1244.2,832.9,1247.8,832.5z M1235.2,836.4&#10;&#9;&#9;&#9;c0,0.2,0.2,0.4,0.4,0.4h0c4.3,0,8.3-0.2,12.2-0.6v-0.9c-3.8,0.3-7.9,0.6-12.2,0.6C1235.4,836,1235.2,836.2,1235.2,836.4z&#10;&#9;&#9;&#9; M1032.1,828.4C1032.1,828.4,1032.1,828.4,1032.1,828.4c0.2,0,0.4-0.2,0.5-0.4c0-0.2-0.2-0.4-0.4-0.5c-8-0.1-17,0.2-26.2,0.6v0.9&#10;&#9;&#9;&#9;C1015.1,828.6,1024.1,828.3,1032.1,828.4z M1073.6,831.8c-0.3-0.8-0.3-2.3,0.7-3.7c1.2-1.6,3.9-3.6,10.5-3.6&#10;&#9;&#9;&#9;c5.1,0,12.3,0.7,18.4,1.8c10.9,1.9,10.9,3.6,10.9,4.1c0,3.2-11,6.2-19.7,6.4c-0.4,0-0.8,0-1.2,0&#10;&#9;&#9;&#9;C1082.3,836.8,1074.3,833.9,1073.6,831.8z M1074.4,831.5c0.5,1.4,7.9,4.6,20,4.3c9.7-0.2,18.9-3.6,18.9-5.5c0-1.8-16.7-5-28.5-5&#10;&#9;&#9;&#9;c-6.2,0-8.7,1.8-9.8,3.2C1074.3,829.7,1074.2,830.9,1074.4,831.5z M1079,831c2.4,2,7.4,2.9,12.5,2.9c5.9,0,12.2-1.1,15.3-2.8&#10;&#9;&#9;&#9;c0.2-0.1,0.3-0.4,0.2-0.6c-0.1-0.2-0.4-0.3-0.6-0.2c-5.5,3-22,4.1-26.9,0c-0.5-0.5-0.7-0.8-0.6-0.9c0.9-1.8,16-0.7,20.3,0.2&#10;&#9;&#9;&#9;c0.2,0,0.5-0.1,0.5-0.4c0-0.2-0.1-0.5-0.4-0.5c-1.5-0.3-19.9-2.6-21.3,0.3C1077.9,829.6,1078.2,830.3,1079,831z M1085.5,829.8&#10;&#9;&#9;&#9;c-0.2-0.2-0.5-0.2-0.6,0c-0.2,0.2-0.2,0.5,0,0.6c1,1,4.1,1.2,6.1,1.2c0.9,0,1.5,0,1.7,0c0.2,0,0.4-0.2,0.4-0.5&#10;&#9;&#9;&#9;c0-0.2-0.2-0.4-0.5-0.4C1090.3,830.9,1086.4,830.7,1085.5,829.8z M1070.5,833.1c0.1,0,0.2,0,0.2,0c0.2,0,0.4-0.2,0.4-0.5&#10;&#9;&#9;&#9;c0-0.2-0.2-0.4-0.4-0.4c0,0,0,0,0,0c0,0-3.7,0.1-6.2-0.9c-0.2-0.1-0.5,0-0.6,0.3c-0.1,0.2,0,0.5,0.3,0.6&#10;&#9;&#9;&#9;C1066.5,833,1069.7,833.1,1070.5,833.1z M1115.3,834.7c0,0.2,0.2,0.4,0.4,0.4c0,0,0,0,0,0c0.2,0,8.6-0.9,19.4-1.8l0.4-0.6&#10;&#9;&#9;&#9;c0.1-0.1,0.2-0.2,0.3-0.4c-11.1,1-19.9,1.9-20.1,1.9C1115.5,834.2,1115.3,834.5,1115.3,834.7z M1247.8,828.2v-0.9&#10;&#9;&#9;&#9;c-3.7,0.4-7.6,0.8-11.5,1.1c-10.9,0.8-30.9,1.2-48.5,1.5c-7.3,0.1-14.3,0.3-19.8,0.4c-3.7,0.1-7.9,0.3-12.4,0.6h26.4&#10;&#9;&#9;&#9;c1.9,0,3.9-0.1,5.9-0.1c17.7-0.3,37.7-0.7,48.6-1.5C1240.3,828.9,1244.1,828.6,1247.8,828.2z M1175.7,827.8&#10;&#9;&#9;&#9;c18.2-0.4,54.9-1.8,69.9-2.4c0.2,0,0.4-0.2,0.4-0.5c0-0.2-0.2-0.4-0.4-0.4c0,0,0,0,0,0c-14.9,0.6-51.7,2.1-69.9,2.4&#10;&#9;&#9;&#9;c-4.7,0.1-10,0.4-15.7,0.8c-14.9,0.9-31.7,1.9-43.2-1c-13.9-3.5-26.9-5.2-36.6-4.8c-5.2,0.2-7.2,1.9-9.1,3.5c-1.2,1-2.4,2-4.3,2.7&#10;&#9;&#9;&#9;c-3.3,1.2-11.9,0.5-19.5,0c-4.1-0.3-8-0.5-10.7-0.6c-0.2,0-0.4,0.2-0.4,0.4c0,0.2,0.2,0.4,0.4,0.4c0,0,0,0,0,0&#10;&#9;&#9;&#9;c2.7,0,6.5,0.3,10.6,0.5c4.4,0.3,9.2,0.7,13.1,0.7c2.9,0,5.3-0.2,6.8-0.7c2.1-0.7,3.4-1.8,4.6-2.8c1.9-1.6,3.7-3.1,8.6-3.3&#10;&#9;&#9;&#9;c5.6-0.2,17.7,0.1,36.3,4.7c11.6,2.9,28.5,1.9,43.5,1C1165.7,828.2,1171,827.9,1175.7,827.8z M1219.4,821.9&#10;&#9;&#9;&#9;c-15.5,0.5-36.7,2-36.9,2c-0.2,0-0.4,0.2-0.4,0.5c0,0.2,0.2,0.4,0.4,0.4c0,0,0,0,0,0c0.2,0,21.3-1.5,36.9-2&#10;&#9;&#9;&#9;c8.4-0.3,19.7-0.2,28.4-0.2v-0.9C1239.1,821.6,1227.7,821.6,1219.4,821.9z M1247.8,818.5c-3.3-0.2-6.3-0.3-8-0.3&#10;&#9;&#9;&#9;c-0.2,0-0.4,0.2-0.4,0.4c0,0.2,0.2,0.4,0.4,0.4c1.7,0,4.7,0.1,8,0.3V818.5z M1062,816c14.4-0.7,32.7-0.4,44.6,0.8&#10;&#9;&#9;&#9;c4.4,0.4,10.2,1.4,17,2.6c12.1,2.1,25.7,4.4,36.1,4.4c0.6,0,1.2,0,1.7,0c10.9-0.3,16.9-1,23.2-1.7c3.1-0.4,6.4-0.8,10.3-1.1&#10;&#9;&#9;&#9;c20.1-1.8,37.2-1.8,37.4-1.8c0.2,0,0.4-0.2,0.4-0.4c0-0.2-0.2-0.4-0.4-0.4c-0.2,0-17.4,0-37.5,1.8c-4,0.4-7.2,0.7-10.4,1.1&#10;&#9;&#9;&#9;c-6.3,0.7-12.2,1.5-23.1,1.7c-10.5,0.3-25-2.2-37.7-4.4c-6.8-1.2-12.7-2.2-17.1-2.6c-11.9-1.2-30.3-1.5-44.7-0.8&#10;&#9;&#9;&#9;c-11.6,0.6-35.3,1.4-49.5,1.9l-6.5,0.2v0.9l6.5-0.2C1027.6,817.3,1050.4,816.5,1062,816z M1035.3,824.4c13.2-1,31.2-2.4,32.7-0.8&#10;&#9;&#9;&#9;c0.3,0.3,0.2,0.5,0.2,0.6c-0.6,1.2-5.1,2.5-10.3,2.1c-0.2,0-0.5,0.2-0.5,0.4c0,0.2,0.2,0.5,0.4,0.5c5.1,0.4,10.3-0.8,11.2-2.6&#10;&#9;&#9;&#9;c0.3-0.5,0.1-1.1-0.3-1.6c-1.7-1.8-14.3-1-33.4,0.5l-5.2,0.4c-7.1,0.5-15.4,0.9-24,1.2v0.9c8.6-0.3,16.9-0.6,24.1-1.2&#10;&#9;&#9;&#9;L1035.3,824.4z M1085.1,819.3c12.4,0.3,21.6,2,29.7,3.5c4,0.7,7.7,1.4,11.7,2c10.1,1.3,19.7,1.4,22.5,1.4c0.5,0,0.8,0,0.9,0&#10;&#9;&#9;&#9;c0.2,0,0.4-0.2,0.4-0.4c0-0.2-0.2-0.4-0.4-0.4c0,0,0,0,0,0c-0.1,0-11.2,0.1-23.2-1.4c-3.9-0.5-7.6-1.2-11.6-2&#10;&#9;&#9;&#9;c-8.2-1.5-17.4-3.3-29.8-3.5c-18.6-0.4-41.1,1-50.7,1.6c-5.3,0.3-16.6,0.7-28.4,1v0.9c11.9-0.3,23.1-0.7,28.5-1&#10;&#9;&#9;&#9;C1044.1,820.2,1066.6,818.8,1085.1,819.3z M1247.8,814.8c-0.9,0-1.8,0-2.7,0c-8.3-0.1-19.3,0.2-32.8,0.8&#10;&#9;&#9;&#9;c-11.8,0.5-23.5,1.5-32.3,2.8c-8.4,1.3-19.1,2.3-34.8,0.5c-3.4-0.4-7.6-1.2-12-2.1c-5.5-1.1-11.8-2.3-17.4-2.9&#10;&#9;&#9;&#9;c-0.2,0-0.5,0.2-0.5,0.4c0,0.2,0.2,0.5,0.4,0.5c5.6,0.6,11.8,1.8,17.4,2.8c4.5,0.9,8.7,1.7,12.1,2.1c6.1,0.7,11.4,1,16.2,1&#10;&#9;&#9;&#9;c7.6,0,13.6-0.7,18.8-1.5c8.7-1.3,20.4-2.3,32.2-2.8c13.5-0.6,24.6-0.8,32.8-0.8c0.9,0,1.8,0,2.7,0V814.8z M1053.4,813.2&#10;&#9;&#9;&#9;c10.4-0.5,22.2-1,29.2-1.3c12.2-0.6,25.5,0.1,35.8,0.7c5.4,0.3,11.7,1.5,17.8,2.7c5.7,1.1,11,2.1,15.4,2.4c1,0.1,2,0.1,3,0.1&#10;&#9;&#9;&#9;c5.5,0,12.3-0.9,18.8-1.7c4.3-0.5,8.3-1.1,11.7-1.3c7-0.5,21.6-0.9,33.4-1.3c4.4-0.1,8.5-0.3,11.7-0.4c5.2-0.2,11.4-0.4,17.5-0.8&#10;&#9;&#9;&#9;v-0.9c-6.1,0.4-12.4,0.6-17.6,0.8c-3.2,0.1-7.3,0.2-11.7,0.4c-11.8,0.4-26.4,0.8-33.4,1.3c-3.4,0.2-7.5,0.8-11.8,1.3&#10;&#9;&#9;&#9;c-7.7,1-15.8,2-21.7,1.6c-4.4-0.3-9.7-1.3-15.3-2.4c-6.1-1.2-12.4-2.4-17.9-2.7c-10.3-0.7-23.6-1.3-35.9-0.7&#10;&#9;&#9;&#9;c-7.1,0.3-18.8,0.9-29.2,1.3c-7.5,0.3-14.4,0.6-18.3,0.8c-5.2,0.2-17.6,0.5-29.1,0.7v0.9c11.6-0.2,24-0.5,29.2-0.7&#10;&#9;&#9;&#9;C1039,813.8,1045.9,813.5,1053.4,813.2z M1176.2,812.2C1176.2,812.2,1176.2,812.2,1176.2,812.2c7.8-1.2,17.3-1.3,28.4-1.3&#10;&#9;&#9;&#9;c5.7,0,11.7,0,18-0.2c9-0.3,17.5-1.3,25.3-2.2v-0.9c-7.8,1-16.4,2-25.3,2.3c-6.3,0.2-12.2,0.2-18,0.2c-11.1,0-20.7,0.1-28.5,1.3&#10;&#9;&#9;&#9;c-0.2,0-0.4,0.3-0.4,0.5C1175.8,812.1,1175.9,812.2,1176.2,812.2z M1153,814c2,0.1,3.6,0.2,5,0.2c4.8,0,6.4-0.7,7.3-1.1&#10;&#9;&#9;&#9;c1.4-0.6,2.9-1,4.4-1.4c2.9-0.8,5.4-1.5,5.2-3.5c-0.1-0.9-1-1.7-2.4-2.4h-2.5c2.7,0.8,3.9,1.8,4,2.5c0.2,1.2-2,1.8-4.5,2.5&#10;&#9;&#9;&#9;c-1.4,0.4-3.1,0.8-4.5,1.5c-1.1,0.5-3.3,1.5-12,0.9c-10.1-0.7-19.1-3.3-19.1-4.9c0-0.4,0.2-0.8,0.6-1.2c0.3-0.3,0.9-0.7,2-1.3&#10;&#9;&#9;&#9;h-1.8c-0.3,0.2-0.6,0.4-0.8,0.6c-0.6,0.6-0.9,1.2-0.9,1.8C1133.1,811.3,1146.2,813.5,1153,814z M1143.8,809.9&#10;&#9;&#9;&#9;c2.7,0.5,8.2,1,12.7,1c3.4,0,6.1-0.3,6.4-1.1c0.1-0.3,0.1-0.5-0.1-0.7c-1-1.3-8.1-1.2-10.3-1.1c-0.2,0-0.4,0.2-0.4,0.5&#10;&#9;&#9;&#9;c0,0.2,0.2,0.4,0.4,0.4c0,0,0,0,0,0c4.1-0.1,8.7,0.1,9.5,0.7c-1.4,0.8-12.8,0.7-18.6-0.7c-2-0.5-2.2-0.9-2.2-0.9&#10;&#9;&#9;&#9;c0,0,0-0.1,0.3-0.3c3-1.7,18.7-2,25.5,0.7c0.2,0.1,0.5,0,0.6-0.3c0.1-0.2,0-0.5-0.3-0.6c-2.6-1-6.3-1.6-10.1-1.9h-9.8&#10;&#9;&#9;&#9;c-3.1,0.2-5.6,0.7-6.5,1.3c-0.4,0.3-0.6,0.6-0.6,0.9C1140.2,808.8,1141.3,809.4,1143.8,809.9z M1115.7,808.3&#10;&#9;&#9;&#9;c-0.2,0-0.4,0.2-0.4,0.4c0,0.2,0.2,0.4,0.4,0.4c8.5,0.1,14.1,1.8,14.2,1.8c0,0,0.1,0,0.1,0c0.2,0,0.4-0.1,0.4-0.3&#10;&#9;&#9;&#9;c0.1-0.2-0.1-0.5-0.3-0.6C1130.1,810.1,1124.4,808.3,1115.7,808.3C1115.7,808.3,1115.7,808.3,1115.7,808.3z M1202.3,807.2&#10;&#9;&#9;&#9;c10.9,0,21.1-0.6,29.4-1.4h-11.7c-6.9,0.4-14.5,0.6-22.4,0.5c-2.9-0.1-5.4-0.2-7.9-0.5h-6.3c4.2,0.7,8.7,1.3,14.2,1.4&#10;&#9;&#9;&#9;C1199.1,807.2,1200.7,807.2,1202.3,807.2z M1018.9,810.2c13.8-0.2,83.2-1,99-3.8c1-0.2,2-0.4,3-0.6h-5&#10;&#9;&#9;&#9;c-18.7,2.5-83.6,3.4-96.9,3.5c-2.2,0-4.9,0.1-8,0.1c-1.5,0-3.2,0-4.9,0.1v0.9c1.7,0,3.4,0,4.9-0.1&#10;&#9;&#9;&#9;C1014,810.2,1016.7,810.2,1018.9,810.2z M1006,805.8v0.3c10.3-0.1,20.9-0.2,31.2-0.3H1006z"/>
		<path d="M 947.700012 782.5 H 959.500012 V 790.4 H 947.700012 V 782.5 Z" fill="#231F20"/>
		<g>
			<path d="M 967.4000244140625 759.0999755859375 L 967.4000244140625 739.5999755859375 L 952.5999755859375 759.0999755859375 Z" fill="#68A1A8"/>
			<path d="M 900.2000122070312 710.0999755859375 L 863 759.0999755859375 L 877.9000244140625 759.0999755859375 L 915 710.0999755859375 Z" fill="#68A1A8"/>
			<path d="M 933 710.0999755859375 L 895.7999877929688 759.0999755859375 L 925.0999755859375 759.0999755859375 L 962.2000122070312 710.0999755859375 Z" fill="#68A1A8"/>
		</g>
	</g>
	<g>
		<path fill="#231F20" d="M1167.4,844.7c-19.3,0-35,15.1-36,34.2v3.9c1,19,16.7,34.2,36,34.2c19.3,0,35-15.1,36-34.2v-3.9&#10;&#9;&#9;&#9;C1202.4,859.8,1186.7,844.7,1167.4,844.7z"/>
		<path fill="#58595B" d="M1190.7,882.8c-1,12-11.1,21.5-23.3,21.5c-12.3,0-22.3-9.4-23.3-21.5v-3.9c1-12,11.1-21.5,23.3-21.5&#10;&#9;&#9;&#9;c12.3,0,22.3,9.4,23.3,21.5V882.8z"/>
		<path fill="#231F20" d="M851.2,844.7c-19.3,0-35,15.1-36,34.2v3.9c1,19,16.7,34.2,36,34.2c19.3,0,35-15.1,36-34.2v-3.9&#10;&#9;&#9;&#9;C886.3,859.8,870.5,844.7,851.2,844.7z"/>
		<path fill="#58595B" d="M874.6,882.8c-1,12-11.1,21.5-23.3,21.5c-12.3,0-22.3-9.4-23.3-21.5v-3.9c1-12,11.1-21.5,23.3-21.5&#10;&#9;&#9;&#9;c12.3,0,22.3,9.4,23.3,21.5V882.8z"/>
		<path d="M 1182.000025 880.799988 A 14.6 14.6 0 0 1 1167.400024 895.399988 A 14.6 14.6 0 0 1 1152.800024 880.799988 A 14.6 14.6 0 0 1 1167.400024 866.199987 A 14.6 14.6 0 0 1 1182.000025 880.799988 Z" fill="#231F20"/>
		<path d="M 865.899988 880.799988 A 14.6 14.6 0 0 1 851.299988 895.399988 A 14.6 14.6 0 0 1 836.699987 880.799988 A 14.6 14.6 0 0 1 851.299988 866.199987 A 14.6 14.6 0 0 1 865.899988 880.799988 Z" fill="#231F20"/>
		<path fill="#231F20" d="M1259.6,845.9h-3.9v-44.1c0-2.2-1.8-3.9-3.9-3.9H998.1v79l-3.9,0V694.4c0-2.2-1.8-3.9-3.9-3.9h-66.5&#10;&#9;&#9;&#9;c-21,0-30.8,9.7-32.6,11.8l-0.6,0.7c-0.6,0.8-2.7,3.4-5.7,7.2c-9.9,12.6-31.6,40.2-38.6,49c-0.3,0.3-0.4,0.6-0.5,0.7&#10;&#9;&#9;&#9;c-1.9,0.7-28.3,10.9-28.3,10.9c-1.2,0.4-2.1,1.4-2.4,2.6l-13,48.2l-0.8,2.9c-0.1,0.3-0.1,0.7-0.1,1v55.3c0,2.2,1.8,3.9,3.9,3.9&#10;&#9;&#9;&#9;c2.2,0,3.9-1.8,3.9-3.9c0-23.2,18.9-42.1,42.1-42.1c0.3,0,0.7,0,1,0.1v-0.1l4.7,0.4c20.6,2.8,36.5,20.4,36.5,41.7&#10;&#9;&#9;&#9;c0,2.2,1.8,3.9,3.9,3.9h77.9h146.9c2.2,0,3.9-1.8,3.9-3.9c0,0,0-15.8,0-17.7c1-1.6,13.1-21.2,15-24.4h52.1&#10;&#9;&#9;&#9;c1.9,3.1,14,22.7,15,24.4c0,2,0,19.7,0,19.7c0,2.2,1.8,3.9,3.9,3.9c2.2,0,3.9-1.8,3.9-3.9v-13.2h43.7c2.2,0,3.9-1.8,3.9-3.9v-15.7&#10;&#9;&#9;&#9;C1263.6,847.7,1261.8,845.9,1259.6,845.9z M817.5,795h2.2v26.5h-9.3C812,815.3,815.4,802.7,817.5,795z M844.4,831.3&#10;&#9;&#9;&#9;c-14.8,2.1-27.5,10.7-35.2,22.8v-24.7h14.5c2.2,0,3.9-1.8,3.9-3.9v-34.4c0-2.2-1.8-3.9-3.9-3.9h-4c1.4-5.1,2.4-8.9,2.7-9.9&#10;&#9;&#9;&#9;c2.3-0.9,14.8-5.7,22.1-8.5V831.3z M967.4,876.9h-66.5c-1.9-23.6-20.1-42.7-43.3-45.6v0l-5.3-0.6V767h115.1V876.9z M967.4,759.1&#10;&#9;&#9;&#9;h-111l38.6-49c0,0,0,0,0,0h72.4V759.1z M971.3,702.2h-66.8c4.3-2.1,10.6-3.9,19.3-3.9c0,0,55.6,0,62.5,0v178.6l-11.1,0V706.2&#10;&#9;&#9;&#9;C975.2,704,973.5,702.2,971.3,702.2z M1255.7,861.7c-2,0-3.9,0-3.9,0h-35.8c0-0.6-0.2-1.2-0.5-1.8l-16.7-27.2&#10;&#9;&#9;&#9;c-0.7-1.2-2-1.9-3.4-1.9h-56.5c-1.4,0-2.6,0.7-3.4,1.9l-16.7,27.2c-0.4,0.6-0.6,1.3-0.6,2.1c0,0,0,10,0,14.9l-112.2,0v-71.1h241.9&#10;&#9;&#9;&#9;v40.2h-5.1v7.9c0,0,11,0,13,0V861.7z"/>
		<path d="M 947.700012 782.5 H 959.500012 V 790.4 H 947.700012 V 782.5 Z" fill="#231F20"/>
	</g>
</g>
<path d="M 1246.099945 591.099976 A 219.899994 4.8 0 0 1 1026.199951 595.899976 A 219.899994 4.8 0 0 1 806.299957 591.099976 A 219.899994 4.8 0 0 1 1026.199951 586.299975 A 219.899994 4.8 0 0 1 1246.099945 591.099976 Z" id="bottom_shadow_4_" opacity="0.5" fill="#B3B3B3"/>
<g id="mini_bus">
	<g>
		<path d="M 1233.0999755859375 570.5999755859375 L 918.7999877929688 570.5999755859375 L 901.9000244140625 570.5999755859375 L 849.2999877929688 570.5999755859375 L 835.9000244140625 574.5 L 825.7999877929688 574.5 L 825.7999877929688 511 L 1233.0999755859375 511 Z"/>
		<path fill="#CCCCCC" d="M809.2,493.1c2.7-2.7,17.2-7.9,33.5-13c-8.5,7.8-22,17.8-37.1,19.9C806.3,498.6,808.4,493.9,809.2,493.1z"/>
		<path fill="#A5BF8F" d="M911.7,523.3c-8.5-10.2-21.3-16.7-35.5-16.7c-25.6-0.1-46.5,20.7-46.6,46.4c0,0,0,9.6,0,14.3l-19.8,0&#10;&#9;&#9;&#9;c-2.2-1.1-11-6.5-11-23.6v-0.1l18.2,0l0-7.3l-18.2,0c0.6-9.2,2.3-21.6,4-28.5c27.6-1.6,49.8-26.6,54.1-31.8&#10;&#9;&#9;&#9;c5.1-1.5,10-2.9,14.5-4.1l40.3-1.9L911.7,523.3z"/>
		<path fill="#A5BF8F" d="M1035.4,563.5l-112.9-0.3c0-4,0-10.2,0-10.2c0-6.3-1.3-12.4-3.5-17.9l0.2-66.1l116.5-5.1L1035.4,563.5z"/>
		<path fill="#A5BF8F" d="M1159.2,514.5c-13,8.2-21.6,22.7-21.7,39.1c0,0,0,6.2,0,10.2l-94.7-0.2l0.2-99.6l116.3-5.7L1159.2,514.5z"/>
		<path fill="#A5BF8F" d="M1265.9,547c-2.5,3.2-13.5,15.4-35.5,16.7c0-4,0-9.9,0-9.9c0.1-25.6-20.7-46.5-46.4-46.6&#10;&#9;&#9;&#9;c-1.4,0-2.8,0.1-4.1,0.2c-0.5,0-1,0.1-1.6,0.2c-0.8,0.1-1.6,0.2-2.4,0.3c-0.6,0.1-1.3,0.2-1.9,0.4c-0.6,0.1-1.2,0.3-1.8,0.4&#10;&#9;&#9;&#9;c-0.7,0.2-1.4,0.4-2.1,0.6l-3.7,1.4l0.1-53.2l55.2-2.2c1.9-0.1,3.5-1.7,3.5-3.6l0.1-45.4c0-2-1.6-3.7-3.6-3.7l-204.1-0.5&#10;&#9;&#9;&#9;c13.5-2.3,27.8-3.6,42.6-3.6c0,0,173.5,0.4,178.5,0.4c0.3,0.9,1.4,3.9,2.9,8l0.4,47.5c0,2,1.6,3.6,3.6,3.6l13.4,0l0,19.9l-9.1,0&#10;&#9;&#9;&#9;l0,7.3l11.3,0c1.4,1.4,3.7,3.8,4.8,4.8l0,7l-30.2-0.1l0,7.3l30.1,0.1L1265.9,547z"/>
		<g>
			<path fill="#55848A" d="M1035.7,456.7C1035.7,456.7,1035.7,456.7,1035.7,456.7c-39.8,1.9-85.8,3.7-116.5,5.1l0-23.6&#10;&#9;&#9;&#9;&#9;c2.1-1.2,4.2-2.4,6.4-3.6c0.9-0.5,1.8-1,2.7-1.4c1.3-0.7,2.6-1.4,4-2.1c1.2-0.6,2.4-1.2,3.6-1.8c1.1-0.5,2.1-1.1,3.2-1.6&#10;&#9;&#9;&#9;&#9;c1.4-0.7,2.9-1.4,4.4-2.1c0.9-0.4,1.8-0.8,2.7-1.2c1.7-0.8,3.4-1.5,5.1-2.3c0.5-0.2,1.1-0.5,1.7-0.7c6.1-2.6,21.9-8.8,30.6-11.9&#10;&#9;&#9;&#9;&#9;l0.3,0l51.9,0.1L1035.7,456.7z"/>
			<path fill="#55848A" d="M1257.6,450.9l-8.2,0c0-3-0.1-13.2-0.2-23.2C1251.8,434.9,1255.7,445.7,1257.6,450.9z"/>
			<path fill="#55848A" d="M1159.4,409.8l-0.1,41.1c-24.3,1.1-102.1,4.8-116.3,5.4l0.1-46.8L1159.4,409.8z"/>
			<path fill="#55848A" d="M1166.7,409.9l51.4,0.1l-0.1,38.2c-0.2,0-0.8,0-1.7,0.1c-3,0.1-9.6,0.4-19,0.9c-0.3,0-0.6,0-1,0&#10;&#9;&#9;&#9;&#9;c-0.4,0-0.8,0-1.2,0.1c-6.1,0.3-19,0.6-28.5,1L1166.7,409.9z"/>
			<path fill="#55848A" d="M911.8,462.5L911.8,462.5c-12.6,0.6-22.8,1.1-29.9,1.4l0,0c0,0,4.5-3.9,4.5-3.9c0.6-0.5,1.2-0.9,1.8-1.4&#10;&#9;&#9;&#9;&#9;c0.4-0.3,0.7-0.5,1.1-0.8c0.6-0.4,1.2-0.9,1.8-1.3c0.5-0.4,1.1-0.8,1.6-1.2c0.5-0.4,1.1-0.8,1.6-1.2c1.1-0.8,2.2-1.5,3.4-2.3&#10;&#9;&#9;&#9;&#9;c0.4-0.3,0.8-0.5,1.2-0.8c0.9-0.6,1.8-1.2,2.7-1.8c0.5-0.3,1-0.6,1.5-1c0.9-0.6,1.9-1.3,2.9-1.9c0.5-0.3,0.9-0.6,1.4-0.9&#10;&#9;&#9;&#9;&#9;c1.5-0.9,2.9-1.9,4.5-2.8L911.8,462.5z"/>
		</g>
		<g>
			<path d="M 1035.800048828125 457.20001220703125 L 1035.800048828125 441.29998779296875 L 1021 457.20001220703125 Z" fill="#68A1A8"/>
			<path d="M 976.5 408.79998779296875 L 926.4000244140625 463.8999938964844 L 941.2000122070312 463.8999938964844 L 991.4000244140625 408.79998779296875 Z" fill="#68A1A8"/>
			<path d="M 1035.800048828125 408.79998779296875 L 1009.2999877929688 408.79998779296875 L 959.5 463.8999938964844 L 988.7000122070312 463.8999938964844 L 1035.800048828125 411.79998779296875 Z" fill="#68A1A8"/>
		</g>
		<g>
			<path d="M 1199 409.70001220703125 L 1161 450.3999938964844 L 1168.4000244140625 450.3999938964844 L 1206.4000244140625 409.70001220703125 Z" fill="#68A1A8"/>
			<path d="M 1222.9000244140625 409.70001220703125 L 1216.4000244140625 409.70001220703125 L 1178.4000244140625 450.3999938964844 L 1220.199951171875 450.3999938964844 L 1222.800048828125 444.8999938964844 Z" fill="#68A1A8"/>
		</g>
		<g>
			<path d="M 1095.300048828125 409.8999938964844 L 1050.199951171875 458.20001220703125 L 1065.0999755859375 458.20001220703125 L 1110.199951171875 409.8999938964844 Z" fill="#68A1A8"/>
			<path d="M 1159.4000244140625 409.8999938964844 L 1132.9000244140625 409.8999938964844 L 1087.800048828125 458.20001220703125 L 1117.0999755859375 458.20001220703125 L 1159.4000244140625 412.79998779296875 Z" fill="#68A1A8"/>
		</g>
	</g>
	<path fill="#231F20" d="M876.1,519.4c-17.9,0-32.6,14-33.6,31.7v3.7h0c0.9,17.7,15.5,31.8,33.4,31.8c17.9,0,32.6-14,33.6-31.7v-3.7&#10;&#9;&#9;h0C908.6,533.6,894.1,519.5,876.1,519.4z"/>
	<path fill="#58595B" d="M897.7,554.9L897.7,554.9c-1,11.2-10.3,19.9-21.7,19.9c-11.4,0-20.7-8.8-21.6-20v-3.7h0&#10;&#9;&#9;c1-11.2,10.3-19.9,21.7-19.9c11.4,0,20.7,8.8,21.6,20V554.9z"/>
	<path fill="#231F20" d="M1184,520.1c-17.9,0-32.6,14-33.6,31.7v3.7h0c0,0,0,0.1,0,0.1v0.2h0c1.1,17.6,15.6,31.5,33.4,31.5&#10;&#9;&#9;c17.9,0,32.6-14,33.6-31.7V552h0C1216.5,534.3,1202,520.2,1184,520.1z"/>
	<path fill="#58595B" d="M1205.6,555.6L1205.6,555.6c-1,11.2-10.3,19.9-21.7,19.9c-11.4,0-20.7-8.8-21.6-20l-0.1,0v-3.7l0.1,0&#10;&#9;&#9;c1-11.2,10.3-19.9,21.7-19.9c11.4,0,20.7,8.8,21.6,20V555.6z"/>
	
		<path d="M 1197.400024 553.700012 A 13.5 13.5 0 0 1 1183.900024 567.200012 A 13.5 13.5 0 0 1 1170.400024 553.700012 A 13.5 13.5 0 0 1 1183.900024 540.200012 A 13.5 13.5 0 0 1 1197.400024 553.700012 Z" transform="matrix(2.247507e-03 -1 1 2.247507e-03 627.5511 1736.4285)" fill="#231F20"/>
	
		<path d="M 889.599976 553 A 13.5 13.5 0 0 1 876.099976 566.5 A 13.5 13.5 0 0 1 862.599976 553 A 13.5 13.5 0 0 1 876.099976 539.5 A 13.5 13.5 0 0 1 889.599976 553 Z" transform="matrix(2.419523e-03 -1 1 2.419523e-03 320.9326 1427.7208)" fill="#231F20"/>
	<path fill="#231F20" d="M1272.3,486.2c0,0-4.3-4.3-5.9-5.9c0-2.7,0.1-25.7,0.1-25.7c0-0.4-0.1-0.8-0.2-1.2c0,0,0-0.1,0-0.1&#10;&#9;&#9;l-0.9-2.4l-2.6,0c0,0-0.2,0-0.6,0l3.2,0l-20.6-56.8c-0.5-1.4-1.9-2.4-3.4-2.4l-181-0.4c-27.3-0.1-52.7,4.3-75.4,10.8&#10;&#9;&#9;c-0.5,0-1,0.2-1.5,0.4c-7,2.1-13.8,4.4-20.2,6.8c-13.7,5.6-35.3,15.5-46,21.6c-1.8,1-3.6,2.1-5.3,3.1c-15.5,9.2-34.4,23.5-43.9,31&#10;&#9;&#9;c-12.9,3.5-57.1,16-64,22.9c-2,2-5.1,8.5-6.5,12.1l7.7,0c0,0,0,0,0,0l-7.7,0c-3,9-5.2,24.7-6,36.3c0,0,0,6,0,7.2&#10;&#9;&#9;c-0.1,24.4,15.5,30.5,16.2,30.7c0.4,0.2,0.8,0.2,1.3,0.2l24.2,0.1c2,0,3.7-1.6,3.7-3.6l0-17.9c0.1-21.6,17.7-39.1,39.2-39.1&#10;&#9;&#9;c21.6,0.1,39.1,17.7,39.1,39.2l0,13.8c0,2,1.6,3.7,3.6,3.7l122.5,0.3v0l99.8,0.2c2,0,3.7-1.6,3.7-3.6l0-13.8&#10;&#9;&#9;c0-15.3,8.9-28.5,21.7-34.9l3.7-1.6c4.3-1.6,9-2.6,13.9-2.6c21.6,0.1,39.1,17.7,39.1,39.2l0,13.8c0,2,1.6,3.7,3.6,3.7&#10;&#9;&#9;c31.6,0.1,45.3-20.2,45.9-21.1c0.4-0.6,0.6-1.3,0.6-2l0.1-49.4h0l0-10C1273.3,487.8,1272.9,486.9,1272.3,486.2z M809.2,493.1&#10;&#9;&#9;c2.7-2.7,17.2-7.9,33.5-13c-8.5,7.8-22,17.8-37.1,19.9C806.3,498.6,808.4,493.9,809.2,493.1z M911.7,523.3&#10;&#9;&#9;c-8.5-10.2-21.3-16.7-35.5-16.7c-25.6-0.1-46.5,20.7-46.6,46.4c0,0,0,9.6,0,14.3l-19.8,0c-2.2-1.1-11-6.5-11-23.6v-0.1l18.2,0&#10;&#9;&#9;l0-7.3l-18.2,0c0.6-9.2,2.3-21.6,4-28.5c27.6-1.6,49.8-26.6,54.1-31.8c5.1-1.5,10-2.9,14.5-4.1l40.3-1.9L911.7,523.3z M911.8,462.5&#10;&#9;&#9;L911.8,462.5c-12.6,0.6-22.8,1.1-29.9,1.4l0,0c0,0,4.5-3.9,4.5-3.9c0.6-0.5,1.2-0.9,1.8-1.4c0.4-0.3,0.7-0.5,1.1-0.8&#10;&#9;&#9;c0.6-0.4,1.2-0.9,1.8-1.3c0.5-0.4,1.1-0.8,1.6-1.2c0.5-0.4,1.1-0.8,1.6-1.2c1.1-0.8,2.2-1.5,3.4-2.3c0.4-0.3,0.8-0.5,1.2-0.8&#10;&#9;&#9;c0.9-0.6,1.8-1.2,2.7-1.8c0.5-0.3,1-0.6,1.5-1c0.9-0.6,1.9-1.3,2.9-1.9c0.5-0.3,0.9-0.6,1.4-0.9c1.5-0.9,2.9-1.9,4.5-2.8&#10;&#9;&#9;L911.8,462.5z M1257.6,450.9l-8.2,0c0-3-0.1-13.2-0.2-23.2C1251.8,434.9,1255.7,445.7,1257.6,450.9z M1035.4,563.5l-112.9-0.3&#10;&#9;&#9;c0-4,0-10.2,0-10.2c0-6.3-1.3-12.4-3.5-17.9l0.2-66.1l116.5-5.1L1035.4,563.5z M1035.7,456.7&#10;&#9;&#9;C1035.7,456.7,1035.7,456.7,1035.7,456.7c-39.8,1.9-85.8,3.7-116.5,5.1l0-23.6c2.1-1.2,4.2-2.4,6.4-3.6c0.9-0.5,1.8-1,2.7-1.4&#10;&#9;&#9;c1.3-0.7,2.6-1.4,4-2.1c1.2-0.6,2.4-1.2,3.6-1.8c1.1-0.5,2.1-1.1,3.2-1.6c1.4-0.7,2.9-1.4,4.4-2.1c0.9-0.4,1.8-0.8,2.7-1.2&#10;&#9;&#9;c1.7-0.8,3.4-1.5,5.1-2.3c0.5-0.2,1.1-0.5,1.7-0.7c6.1-2.6,21.9-8.8,30.6-11.9l0.3,0l51.9,0.1L1035.7,456.7z M1159.2,514.5&#10;&#9;&#9;c-13,8.2-21.6,22.7-21.7,39.1c0,0,0,6.2,0,10.2l-94.7-0.2l0.2-99.6l116.3-5.7L1159.2,514.5z M1159.3,451&#10;&#9;&#9;c-24.3,1.1-102.1,4.8-116.3,5.4l0.1-46.8l116.3,0.3L1159.3,451z M1266,497.4l-30.2-0.1l0,7.3l30.1,0.1l-0.1,42.3&#10;&#9;&#9;c-2.5,3.2-13.5,15.4-35.5,16.7c0-4,0-9.9,0-9.9c0.1-25.6-20.7-46.5-46.4-46.6c-1.4,0-2.8,0.1-4.1,0.2c-0.5,0-1,0.1-1.6,0.2&#10;&#9;&#9;c-0.8,0.1-1.6,0.2-2.4,0.3c-0.6,0.1-1.3,0.2-1.9,0.4c-0.6,0.1-1.2,0.3-1.8,0.4c-0.7,0.2-1.4,0.4-2.1,0.6l-3.7,1.4l0.1-53.2&#10;&#9;&#9;l55.2-2.2c1.9-0.1,3.5-1.7,3.5-3.6l0.1-45.4c0-2-1.6-3.7-3.6-3.7l-204.1-0.5c13.5-2.3,27.8-3.6,42.6-3.6c0,0,173.5,0.4,178.5,0.4&#10;&#9;&#9;c0.3,0.9,1.4,3.9,2.9,8l0.4,47.5c0,2,1.6,3.6,3.6,3.6l13.4,0l0,19.9l-9.1,0l0,7.3l11.3,0c1.4,1.4,3.7,3.8,4.8,4.8L1266,497.4z&#10;&#9;&#9; M1166.6,450.3l0.1-40.4l51.4,0.1l-0.1,38.2c-0.2,0-0.8,0-1.7,0.1c-3,0.1-9.6,0.4-19,0.9c-0.3,0-0.6,0-1,0c-0.4,0-0.8,0-1.2,0.1&#10;&#9;&#9;C1189,449.6,1176.1,449.9,1166.6,450.3z"/>
	
		<path d="M 1019.200012 477.899994 H 1026.500012 V 488.899994 H 1019.200012 V 477.899994 Z" transform="matrix(2.251385e-03 -1 1 2.251385e-03 537.1803 1505.0774)" fill="#231F20"/>
	
		<path d="M 1052.099976 477.899994 H 1059.399976 V 488.899994 H 1052.099976 V 477.899994 Z" transform="matrix(2.273108e-03 -1 1 2.273108e-03 569.9166 1538.0552)" fill="#231F20"/>
</g>
<path id="bottom_shadow_3_" opacity="0.5" fill="#B3B3B3" d="M593.1,909.8c0,4.7-48.9,8.5-236.7,8.5c-190,0-236.7-3.8-236.7-8.5&#10;&#9;s106-4.2,236.7-4.2S593.1,905.1,593.1,909.8z"/>
<g id="open_jeep">
	<path d="M 549 863 L 220.10000610351562 863 L 137.89999389648438 863 L 128.5 857.2000122070312 L 128.5 814.9000244140625 L 567.2000122070312 814.9000244140625 L 566.7000122070312 857.2999877929688 Z"/>
	<g>
		<path fill="#55848A" d="M332,699.7h102.3v46.2H304.1C310.1,735.4,325.3,711.4,332,699.7z"/>
		<path d="M 302.600006 755.099976 H 434.400009 V 836.199974 H 302.600006 V 755.099976 Z" fill="#404037"/>
		<path fill="#545448" d="M155.9,769.6c0.4,0,70-7.1,111.7-11.4v22.2H143.2v-4.6h0C148,771.3,155.3,769.7,155.9,769.6z"/>
		<path fill="#404037" d="M206.8,815.6h-58.2c-1.4,0-2.8,0.7-3.7,1.8c0,0-17.5,21.9-17.5,23.5c0,0,0,3.8,0,7.2h-20.2v-15.9h16v-9.3&#10;&#9;&#9;&#9;h-4.1v-29.1c0-0.2,0-0.3,0.4-0.7c2.3-2.3,10.2-3.4,14.7-3.3c0,0,0,0,0,0v0h142.7v-32.4c6.9-0.7,12.6-1.3,16.4-1.7v80.6h-68.1&#10;&#9;&#9;&#9;c-7.3-9.3-14.8-18.8-14.8-18.8C209.6,816.3,208.2,815.6,206.8,815.6z"/>
		<path fill="#404037" d="M445.7,853.7H238.9c-0.7-0.9-3.2-4.1-6.4-8.2h219.6C448.9,849.6,446.4,852.8,445.7,853.7z"/>
		<path fill="#404037" d="M600.8,848.1h-35.6c0-2,0-4,0-4c0-1.2-0.5-2.4-1.4-3.3L539.6,817c-0.9-0.9-2-1.3-3.2-1.3h-58.7&#10;&#9;&#9;&#9;c-1.4,0-2.8,0.7-3.7,1.8c0,0-7.4,9.5-14.7,18.8h-15.7V779h143.2v43.9h-6.5v9.3h20.4V848.1z"/>
		<g>
			<path d="M 434.29998779296875 745.9000244140625 L 434.29998779296875 718.2999877929688 L 419.70001220703125 745.9000244140625 Z" fill="#68A1A8"/>
			<path d="M 355.29998779296875 698.0999755859375 L 327.79998779296875 745.9000244140625 L 342.5 745.9000244140625 L 370 698.0999755859375 Z" fill="#68A1A8"/>
			<path d="M 413.79998779296875 698.0999755859375 L 387.70001220703125 698.0999755859375 L 360.20001220703125 745.9000244140625 L 389.1000061035156 745.9000244140625 Z" fill="#68A1A8"/>
		</g>
	</g>
	<path fill="#231F20" d="M178.9,831.8c-22.7,0-41.3,17.8-42.5,40.3v4.6c1.2,22.4,19.7,40.3,42.5,40.3c22.7,0,41.3-17.8,42.5-40.3&#10;&#9;&#9;v-4.6C220.2,849.6,201.6,831.8,178.9,831.8z"/>
	<path fill="#58595B" d="M206.4,876.7c-1.2,14.2-13,25.3-27.5,25.3c-14.5,0-26.3-11.1-27.5-25.3v-4.6c1.2-14.2,13-25.3,27.5-25.3&#10;&#9;&#9;c14.5,0,26.3,11.1,27.5,25.3V876.7z"/>
	<path d="M 196.099995 874.400024 A 17.200001 17.200001 0 0 1 178.899994 891.600025 A 17.200001 17.200001 0 0 1 161.699993 874.400024 A 17.200001 17.200001 0 0 1 178.899994 857.200024 A 17.200001 17.200001 0 0 1 196.099995 874.400024 Z" fill="#231F20"/>
	<path fill="#231F20" d="M605.4,818.6c2.6,0,4.6-2.1,4.6-4.6v-70.4c0-2.6-2.1-4.6-4.6-4.6s-4.6,2.1-4.6,4.6v70.4&#10;&#9;&#9;C600.8,816.5,602.8,818.6,605.4,818.6z"/>
	<path d="M 411.100006 779.200012 H 425.000006 V 788.500012 H 411.100006 V 779.200012 Z" fill="#231F20"/>
	<path fill="#231F20" d="M508.1,831.8c-22.7,0-41.3,17.8-42.5,40.3v4.6c1.2,22.4,19.7,40.3,42.5,40.3c22.7,0,41.3-17.8,42.5-40.3&#10;&#9;&#9;v-4.6C549.3,849.6,530.8,831.8,508.1,831.8z"/>
	<path fill="#58595B" d="M535.6,876.7c-1.2,14.2-13,25.3-27.5,25.3c-14.5,0-26.3-11.1-27.5-25.3v-4.6c1.2-14.2,13-25.3,27.5-25.3&#10;&#9;&#9;c14.5,0,26.3,11.1,27.5,25.3V876.7z"/>
	<path d="M 525.300007 874.400024 A 17.200001 17.200001 0 0 1 508.100006 891.600025 A 17.200001 17.200001 0 0 1 490.900005 874.400024 A 17.200001 17.200001 0 0 1 508.100006 857.200024 A 17.200001 17.200001 0 0 1 525.300007 874.400024 Z" fill="#231F20"/>
	<path fill="#231F20" d="M605.4,822.9h-9.3c0-14.9-0.1-53.2-0.1-53.2H443.6l0-79.3H326.7c-1.6,2.7-28,46.3-33.2,55.4&#10;&#9;&#9;c-0.1,0-0.2,0-0.2,0v0.4c0,0,0,0.1-0.1,0.1c-16.8,1.7-138.5,14.1-138.5,14.1c-0.1,0-0.3,0-0.4,0.1c-0.8,0.2-16.6,3.4-22.4,15.3v4.6&#10;&#9;&#9;c0,0-14.7,1.8-19,6c-2,2-3.1,4.5-3.1,7.3c0,0,0,19.1,0,29.1c-3.4,0-7.2,0-7.2,0c-2.6,0-4.6,2.1-4.6,4.6v25.2c0,2.6,2.1,4.6,4.6,4.6&#10;&#9;&#9;h29.5c2.6,0,4.6-2.1,4.6-4.6c0,0,0-6.6,0-9.6c0.7-1,11.9-15.4,14.1-18.3h53.7c2.5,3.2,28.5,36.3,28.5,36.3c0.9,1.1,2.2,1.8,3.6,1.8&#10;&#9;&#9;h211.2c1.4,0,2.8-0.7,3.7-1.8c0,0,25.8-33.1,28.3-36.3h54.6c2.3,2.2,19.1,18.8,21.5,21.1c0,2.3,0,6.7,0,6.7c0,2.6,2.1,4.6,4.6,4.6&#10;&#9;&#9;h44.9c2.6,0,4.6-2.1,4.6-4.6v-25.2C610.1,825,608,822.9,605.4,822.9z M332,699.7h102.3v46.2H304.1&#10;&#9;&#9;C310.1,735.4,325.3,711.4,332,699.7z M302.6,755.1h131.8v81.1H302.6V755.1z M155.9,769.6c0.4,0,70-7.1,111.7-11.4v22.2H143.2v-4.6&#10;&#9;&#9;h0C148,771.3,155.3,769.7,155.9,769.6z M206.8,815.6h-58.2c-1.4,0-2.8,0.7-3.7,1.8c0,0-17.5,21.9-17.5,23.5c0,0,0,3.8,0,7.2h-20.2&#10;&#9;&#9;v-15.9h16v-9.3h-4.1v-29.1c0-0.2,0-0.3,0.4-0.7c2.3-2.3,10.2-3.4,14.7-3.3c0,0,0,0,0,0v0h142.7v-32.4c6.9-0.7,12.6-1.3,16.4-1.7&#10;&#9;&#9;v80.6h-68.1c-7.3-9.3-14.8-18.8-14.8-18.8C209.6,816.3,208.2,815.6,206.8,815.6z M445.7,853.7H238.9c-0.7-0.9-3.2-4.1-6.4-8.2&#10;&#9;&#9;h219.6C448.9,849.6,446.4,852.8,445.7,853.7z M600.8,848.1h-35.6c0-2,0-4,0-4c0-1.2-0.5-2.4-1.4-3.3L539.6,817&#10;&#9;&#9;c-0.9-0.9-2-1.3-3.2-1.3h-58.7c-1.4,0-2.8,0.7-3.7,1.8c0,0-7.4,9.5-14.7,18.8h-15.7V779h143.2v43.9h-6.5v9.3h20.4V848.1z"/>
</g>
<path id="bottom_shadow_2_" opacity="0.5" fill="#B3B3B3" d="M605.8,592.5c0,4.2-58.7,7.6-249.5,7.6c-196,0-249.5-3.4-249.5-7.6&#10;&#9;s111.7-5.1,249.5-5.1S605.8,588.3,605.8,592.5z"/>

<path d="M 1225.000015 260.299988 A 209.300003 4.8 0 0 1 1015.700012 265.099988 A 209.300003 4.8 0 0 1 806.400009 260.299988 A 209.300003 4.8 0 0 1 1015.700012 255.499988 A 209.300003 4.8 0 0 1 1225.000015 260.299988 Z" id="bottom_shadow_1_" opacity="0.5" fill="#B3B3B3"/>
<g id="sport_car_1_">
	<path d="M 1215.300048828125 246.60000610351562 L 795.2999877929688 246.60000610351562 L 795.2999877929688 170.6999969482422 L 1245.199951171875 170.6999969482422 L 1245.199951171875 237.89999389648438 L 1234.300048828125 239.10000610351562 Z"/>
	<path fill="#FF7A2E" d="M1281.6,180.4c-1.6-2.6-9.7-15.8-14.1-23h16.6v23H1281.6z"/>
	<path fill="#FF7A2E" d="M773.6,180.8h16.2c-1.6,3.7-2.7,6.2-3.6,8.2h-16.4C770.6,187.7,772.7,182.3,773.6,180.8z"/>
	<path d="M 1068.199951171875 238.8000030517578 L 940.7000122070312 238.8000030517578 L 940.7000122070312 144.60000610351562 L 1085.9000244140625 144.60000610351562 Z" fill="#F4F1E1"/>
	<path fill="#55848A" d="M1095.2,136.8l5.6-29.5c21.5,1.6,45.7,5.4,72.5,14.1c6.2,2.5,5.6,8.1,5.3,9.7c-0.6,2.8-2.5,5.7-5.1,5.7&#10;&#9;&#9;c0,0-12,0-30.4,0H1095.2L1095.2,136.8z"/>
	<path fill="#55848A" d="M1087.3,136.8H952.8c13.5-7,31.5-16.3,31.8-16.4c4.5-1.7,39.1-14.2,84.1-14.2c7.6,0,15.7,0.1,24.3,0.6&#10;&#9;&#9;L1087.3,136.8z"/>
	<path d="M 1063.5 155.899994 H 1075.1 V 163.599994 H 1063.5 V 155.899994 Z" fill="#231F20"/>
	<g>
		<path d="M 1091.5 138.8000030517578 L 1091.5 125.30000305175781 L 1078.800048828125 138.8000030517578 Z" fill="#68A1A8"/>
		<path d="M 1010.2000122070312 105.5999984741211 L 976.7999877929688 141.8000030517578 L 989.5 141.8000030517578 L 1022.9000244140625 105.5999984741211 Z" fill="#68A1A8"/>
		<path d="M 1072 104 L 1039.300048828125 104 L 1005.7999877929688 140.1999969482422 L 1041 140.1999969482422 L 1072 106.5 Z" fill="#68A1A8"/>
	</g>
	<g>
		<path d="M 1128.800048828125 108.69999694824219 L 1101.0999755859375 138.8000030517578 L 1111.5999755859375 138.8000030517578 L 1139.4000244140625 108.69999694824219 Z" fill="#68A1A8"/>
		<path d="M 1181 108.19999694824219 L 1153.800048828125 108.19999694824219 L 1126 138.3000030517578 L 1155.199951171875 138.3000030517578 L 1181 110.30000305175781 Z" fill="#68A1A8"/>
	</g>
	<path fill="#F4F1E1" d="M1286.7,222.8c-11.5,3.6-38.5,7-49,8.1c0-3.9,0-8.8,0-8.8c0-27.2-22.1-49.2-49.2-49.2&#10;&#9;&#9;c-27.1,0-49.2,22.1-49.2,49.2c0,0,0,11.6,0,16.7h-63.2l17.7-94.2h79.6c6.1,0,11.3-4.9,12.7-11.9c1.2-6.1-0.7-14.6-10.2-18.5&#10;&#9;&#9;c-42.3-13.8-77.9-15.7-107.2-15.7c-46.9,0-83.1,13.3-87.1,14.8c-0.1,0.1-0.3,0.1-0.4,0.2L935,137.3c0,0-0.1,0-0.1,0.1&#10;&#9;&#9;c-0.3,0.2-0.7,0.4-0.9,0.7c0,0-0.1,0.1-0.1,0.1c-0.2,0.3-0.4,0.6-0.6,0.9c0,0,0,0.1-0.1,0.1c-0.2,0.3-0.2,0.7-0.3,1.1&#10;&#9;&#9;c0,0.1,0,0.2,0,0.2c0,0.1,0,0.2,0,0.3v98.1h-42.8c0-5.1,0-16.7,0-16.7c0-27.2-22.1-49.2-49.2-49.2c-27.1,0-49.2,22.1-49.2,49.2&#10;&#9;&#9;c0,0,0,9.2,0,15.1c-6.4-2.2-19.6-6.9-23.2-8.1v-32.4h20.4c1.5,0,2.9-0.9,3.6-2.3l7-16c0.5-1.2,0.4-2.6-0.3-3.7&#10;&#9;&#9;c-0.7-1.1-1.9-1.8-3.2-1.8h-17.2c0.1-0.2,0.2-0.3,0.3-0.4c5.2-3,43.2-23.1,131.8-28c0.5,0,1.1-0.2,1.6-0.4c0,0,66.3-34.2,66.7-34.3&#10;&#9;&#9;c1.7-0.7,39.2-15.2,88.9-15.2c46.6,0,99.1,5,167.7,41.4c0.3,0.2,0.7,0.3,1.1,0.4c0,0,42,8.4,47.5,9.5v3.7h-23.5&#10;&#9;&#9;c-1.4,0-2.7,0.8-3.4,2c-0.7,1.2-0.7,2.7,0.1,3.9l18.9,30.7c0.7,1.1,2,1.8,3.3,1.8h8.5c0,0,3.7,0,7.1,0h1.3c0,0.9,0.1,1.6,0.1,2.6&#10;&#9;&#9;C1296.4,202.9,1294.3,220.4,1286.7,222.8z"/>
	<g>
		<path fill="#231F20" d="M1189.5,186.5c-19,0-34.5,14.9-35.5,33.7v3.9c1,18.8,16.5,33.7,35.5,33.7c19,0,34.5-14.9,35.5-33.7v-3.9&#10;&#9;&#9;&#9;C1224,201.4,1208.5,186.5,1189.5,186.5z"/>
		<path fill="#58595B" d="M1212.5,224c-1,11.8-10.9,21.1-23,21.1c-12.1,0-22-9.3-23-21.1v-3.9c1-11.8,10.9-21.1,23-21.1&#10;&#9;&#9;&#9;c12.1,0,22,9.3,23,21.1V224z"/>
		<path fill="#231F20" d="M841.8,186.5c-19,0-34.5,14.9-35.5,33.7v3.9c1,18.8,16.5,33.7,35.5,33.7c19,0,34.5-14.9,35.5-33.7v-3.9&#10;&#9;&#9;&#9;C876.3,201.4,860.8,186.5,841.8,186.5z"/>
		<path fill="#58595B" d="M864.8,224c-1,11.8-10.9,21.1-23,21.1c-12.1,0-22-9.3-23-21.1v-3.9c1-11.8,10.9-21.1,23-21.1&#10;&#9;&#9;&#9;c12.1,0,22,9.3,23,21.1V224z"/>
		<path d="M 856.199987 222.100006 A 14.4 14.4 0 0 1 841.799988 236.500006 A 14.4 14.4 0 0 1 827.399988 222.100006 A 14.4 14.4 0 0 1 841.799988 207.700006 A 14.4 14.4 0 0 1 856.199987 222.100006 Z" fill="#231F20"/>
		<path d="M 1203.9 222.100006 A 14.4 14.4 0 0 1 1189.5 236.500006 A 14.4 14.4 0 0 1 1175.1 222.100006 A 14.4 14.4 0 0 1 1189.5 207.700006 A 14.4 14.4 0 0 1 1203.9 222.100006 Z" fill="#231F20"/>
		<path fill="#231F20" d="M1303.9,184c-0.1-2-1.8-3.6-3.9-3.6c0,0-2.4,0-5.1,0h-3.2c0-11.3,0-37.7,0-37.7c0-1.8-1.3-3.4-3.1-3.8&#10;&#9;&#9;&#9;c0,0-49.1-9.8-50.1-10c-69.8-36.9-123.4-42-170.8-42c-52.2,0-90.3,15.2-91.9,15.8c-0.1,0-0.2,0.1-0.3,0.2c0,0-64.8,33.4-66.1,34.1&#10;&#9;&#9;&#9;c-97.2,5.5-133.9,28.6-135.4,29.6c-0.5,0.3-0.9,0.7-1.2,1.2L760.7,189v42.9c0,1.6,1,3.1,2.6,3.7l31,10.8c1.2,0.4,2.5,0.2,3.5-0.5&#10;&#9;&#9;&#9;c1-0.7,1.6-1.9,1.6-3.2v-20.6c0-22.9,18.6-41.5,41.5-41.5c22.9,0,41.5,18.6,41.5,41.5v20.6c0,2.1,1.7,3.9,3.9,3.9h50.7h3.8h131.7&#10;&#9;&#9;&#9;h2.3h68.5c2.1,0,3.9-1.7,3.9-3.9v-20.6c0-22.9,18.6-41.5,41.5-41.5c22.9,0,41.5,18.6,41.5,41.5v13.2c0,1.1,0.5,2.1,1.3,2.9&#10;&#9;&#9;&#9;c0.8,0.7,1.9,1.1,3,1c1.6-0.2,39.8-4.1,54.8-8.9c13.3-4.2,15.1-26.7,15.1-38.8C1304.2,187.7,1304,185,1303.9,184z M1281.6,180.4&#10;&#9;&#9;&#9;c-1.6-2.6-9.7-15.8-14.1-23h16.6v23H1281.6z M773.6,180.8h16.2c-1.6,3.7-2.7,6.2-3.6,8.2h-16.4&#10;&#9;&#9;&#9;C770.6,187.7,772.7,182.3,773.6,180.8z M1068.2,238.8H940.7v-94.2h145.3L1068.2,238.8z M1095.2,136.8l5.6-29.5&#10;&#9;&#9;&#9;c21.5,1.6,45.7,5.4,72.5,14.1c6.2,2.5,5.6,8.1,5.3,9.7c-0.6,2.8-2.5,5.7-5.1,5.7c0,0-12,0-30.4,0H1095.2L1095.2,136.8z&#10;&#9;&#9;&#9; M1087.3,136.8H952.8c13.5-7,31.5-16.3,31.8-16.4c4.5-1.7,39.1-14.2,84.1-14.2c7.6,0,15.7,0.1,24.3,0.6L1087.3,136.8z&#10;&#9;&#9;&#9; M1286.7,222.8c-11.5,3.6-38.5,7-49,8.1c0-3.9,0-8.8,0-8.8c0-27.2-22.1-49.2-49.2-49.2c-27.1,0-49.2,22.1-49.2,49.2&#10;&#9;&#9;&#9;c0,0,0,11.6,0,16.7h-63.2l17.7-94.2h79.6c6.1,0,11.3-4.9,12.7-11.9c1.2-6.1-0.7-14.6-10.2-18.5c-42.3-13.8-77.9-15.7-107.2-15.7&#10;&#9;&#9;&#9;c-46.9,0-83.1,13.3-87.1,14.8c-0.1,0.1-0.3,0.1-0.4,0.2L935,137.3c0,0-0.1,0-0.1,0.1c-0.3,0.2-0.7,0.4-0.9,0.7&#10;&#9;&#9;&#9;c0,0-0.1,0.1-0.1,0.1c-0.2,0.3-0.4,0.6-0.6,0.9c0,0,0,0.1-0.1,0.1c-0.2,0.3-0.2,0.7-0.3,1.1c0,0.1,0,0.2,0,0.2c0,0.1,0,0.2,0,0.3&#10;&#9;&#9;&#9;v98.1h-42.8c0-5.1,0-16.7,0-16.7c0-27.2-22.1-49.2-49.2-49.2c-27.1,0-49.2,22.1-49.2,49.2c0,0,0,9.2,0,15.1&#10;&#9;&#9;&#9;c-6.4-2.2-19.6-6.9-23.2-8.1v-32.4h20.4c1.5,0,2.9-0.9,3.6-2.3l7-16c0.5-1.2,0.4-2.6-0.3-3.7c-0.7-1.1-1.9-1.8-3.2-1.8h-17.2&#10;&#9;&#9;&#9;c0.1-0.2,0.2-0.3,0.3-0.4c5.2-3,43.2-23.1,131.8-28c0.5,0,1.1-0.2,1.6-0.4c0,0,66.3-34.2,66.7-34.3c1.7-0.7,39.2-15.2,88.9-15.2&#10;&#9;&#9;&#9;c46.6,0,99.1,5,167.7,41.4c0.3,0.2,0.7,0.3,1.1,0.4c0,0,42,8.4,47.5,9.5v3.7h-23.5c-1.4,0-2.7,0.8-3.4,2c-0.7,1.2-0.7,2.7,0.1,3.9&#10;&#9;&#9;&#9;l18.9,30.7c0.7,1.1,2,1.8,3.3,1.8h8.5c0,0,3.7,0,7.1,0h1.3c0,0.9,0.1,1.6,0.1,2.6C1296.4,202.9,1294.3,220.4,1286.7,222.8z"/>
	</g>
</g>


<path d="M 0 0 H 1400 V 980 H 0 V 0 Z" id="background_1_" fill="#EBEBEB"/><path d="M 538.699997 257.700012 A 187.699997 7.1 0 0 1 351 264.800012 A 187.699997 7.1 0 0 1 163.300003 257.700012 A 187.699997 7.1 0 0 1 351 250.600012 A 187.699997 7.1 0 0 1 538.699997 257.700012 Z" id="bottom_shadow" opacity="0.5" fill="#B3B3B3" transform="matrix(0.9999999999999999, 0, 0, 0.9999999999999999, 418.5023372618746, 295.9750333618324)"/><g id="g-1" transform="matrix(0.9999999999999999, 0, 0, 0.9999999999999999, -250.5532679479128, 300.94172495233715)">
	<path d="M 1215.300048828125 246.60000610351562 L 795.2999877929688 246.60000610351562 L 795.2999877929688 170.6999969482422 L 1245.199951171875 170.6999969482422 L 1245.199951171875 237.89999389648438 L 1234.300048828125 239.10000610351562 Z"/>
	<path fill="#FF7A2E" d="M1281.6,180.4c-1.6-2.6-9.7-15.8-14.1-23h16.6v23H1281.6z"/>
	<path fill="#FF7A2E" d="M773.6,180.8h16.2c-1.6,3.7-2.7,6.2-3.6,8.2h-16.4C770.6,187.7,772.7,182.3,773.6,180.8z"/>
	<path d="M 1068.199951171875 238.8000030517578 L 940.7000122070312 238.8000030517578 L 940.7000122070312 144.60000610351562 L 1085.9000244140625 144.60000610351562 Z" fill="#F4F1E1"/>
	<path fill="#55848A" d="M1095.2,136.8l5.6-29.5c21.5,1.6,45.7,5.4,72.5,14.1c6.2,2.5,5.6,8.1,5.3,9.7c-0.6,2.8-2.5,5.7-5.1,5.7&#10;&#9;&#9;c0,0-12,0-30.4,0H1095.2L1095.2,136.8z"/>
	<path fill="#55848A" d="M1087.3,136.8H952.8c13.5-7,31.5-16.3,31.8-16.4c4.5-1.7,39.1-14.2,84.1-14.2c7.6,0,15.7,0.1,24.3,0.6&#10;&#9;&#9;L1087.3,136.8z"/>
	<path d="M 1063.5 155.899994 H 1075.1 V 163.599994 H 1063.5 V 155.899994 Z" fill="#231F20"/>
	<g>
		<path d="M 1091.5 138.8000030517578 L 1091.5 125.30000305175781 L 1078.800048828125 138.8000030517578 Z" fill="#68A1A8"/>
		<path d="M 1010.2000122070312 105.5999984741211 L 976.7999877929688 141.8000030517578 L 989.5 141.8000030517578 L 1022.9000244140625 105.5999984741211 Z" fill="#68A1A8"/>
		<path d="M 1072 104 L 1039.300048828125 104 L 1005.7999877929688 140.1999969482422 L 1041 140.1999969482422 L 1072 106.5 Z" fill="#68A1A8"/>
	</g>
	<g>
		<path d="M 1128.800048828125 108.69999694824219 L 1101.0999755859375 138.8000030517578 L 1111.5999755859375 138.8000030517578 L 1139.4000244140625 108.69999694824219 Z" fill="#68A1A8"/>
		<path d="M 1181 108.19999694824219 L 1153.800048828125 108.19999694824219 L 1126 138.3000030517578 L 1155.199951171875 138.3000030517578 L 1181 110.30000305175781 Z" fill="#68A1A8"/>
	</g>
	<path fill="#F4F1E1" d="M1286.7,222.8c-11.5,3.6-38.5,7-49,8.1c0-3.9,0-8.8,0-8.8c0-27.2-22.1-49.2-49.2-49.2&#10;&#9;&#9;c-27.1,0-49.2,22.1-49.2,49.2c0,0,0,11.6,0,16.7h-63.2l17.7-94.2h79.6c6.1,0,11.3-4.9,12.7-11.9c1.2-6.1-0.7-14.6-10.2-18.5&#10;&#9;&#9;c-42.3-13.8-77.9-15.7-107.2-15.7c-46.9,0-83.1,13.3-87.1,14.8c-0.1,0.1-0.3,0.1-0.4,0.2L935,137.3c0,0-0.1,0-0.1,0.1&#10;&#9;&#9;c-0.3,0.2-0.7,0.4-0.9,0.7c0,0-0.1,0.1-0.1,0.1c-0.2,0.3-0.4,0.6-0.6,0.9c0,0,0,0.1-0.1,0.1c-0.2,0.3-0.2,0.7-0.3,1.1&#10;&#9;&#9;c0,0.1,0,0.2,0,0.2c0,0.1,0,0.2,0,0.3v98.1h-42.8c0-5.1,0-16.7,0-16.7c0-27.2-22.1-49.2-49.2-49.2c-27.1,0-49.2,22.1-49.2,49.2&#10;&#9;&#9;c0,0,0,9.2,0,15.1c-6.4-2.2-19.6-6.9-23.2-8.1v-32.4h20.4c1.5,0,2.9-0.9,3.6-2.3l7-16c0.5-1.2,0.4-2.6-0.3-3.7&#10;&#9;&#9;c-0.7-1.1-1.9-1.8-3.2-1.8h-17.2c0.1-0.2,0.2-0.3,0.3-0.4c5.2-3,43.2-23.1,131.8-28c0.5,0,1.1-0.2,1.6-0.4c0,0,66.3-34.2,66.7-34.3&#10;&#9;&#9;c1.7-0.7,39.2-15.2,88.9-15.2c46.6,0,99.1,5,167.7,41.4c0.3,0.2,0.7,0.3,1.1,0.4c0,0,42,8.4,47.5,9.5v3.7h-23.5&#10;&#9;&#9;c-1.4,0-2.7,0.8-3.4,2c-0.7,1.2-0.7,2.7,0.1,3.9l18.9,30.7c0.7,1.1,2,1.8,3.3,1.8h8.5c0,0,3.7,0,7.1,0h1.3c0,0.9,0.1,1.6,0.1,2.6&#10;&#9;&#9;C1296.4,202.9,1294.3,220.4,1286.7,222.8z"/>
	<g>
		<path fill="#231F20" d="M1189.5,186.5c-19,0-34.5,14.9-35.5,33.7v3.9c1,18.8,16.5,33.7,35.5,33.7c19,0,34.5-14.9,35.5-33.7v-3.9&#10;&#9;&#9;&#9;C1224,201.4,1208.5,186.5,1189.5,186.5z"/>
		<path fill="#58595B" d="M1212.5,224c-1,11.8-10.9,21.1-23,21.1c-12.1,0-22-9.3-23-21.1v-3.9c1-11.8,10.9-21.1,23-21.1&#10;&#9;&#9;&#9;c12.1,0,22,9.3,23,21.1V224z"/>
		<path fill="#231F20" d="M841.8,186.5c-19,0-34.5,14.9-35.5,33.7v3.9c1,18.8,16.5,33.7,35.5,33.7c19,0,34.5-14.9,35.5-33.7v-3.9&#10;&#9;&#9;&#9;C876.3,201.4,860.8,186.5,841.8,186.5z"/>
		<path fill="#58595B" d="M864.8,224c-1,11.8-10.9,21.1-23,21.1c-12.1,0-22-9.3-23-21.1v-3.9c1-11.8,10.9-21.1,23-21.1&#10;&#9;&#9;&#9;c12.1,0,22,9.3,23,21.1V224z"/>
		<path d="M 856.199987 222.100006 A 14.4 14.4 0 0 1 841.799988 236.500006 A 14.4 14.4 0 0 1 827.399988 222.100006 A 14.4 14.4 0 0 1 841.799988 207.700006 A 14.4 14.4 0 0 1 856.199987 222.100006 Z" fill="#231F20"/>
		<path d="M 1203.9 222.100006 A 14.4 14.4 0 0 1 1189.5 236.500006 A 14.4 14.4 0 0 1 1175.1 222.100006 A 14.4 14.4 0 0 1 1189.5 207.700006 A 14.4 14.4 0 0 1 1203.9 222.100006 Z" fill="#231F20"/>
		<path fill="#231F20" d="M1303.9,184c-0.1-2-1.8-3.6-3.9-3.6c0,0-2.4,0-5.1,0h-3.2c0-11.3,0-37.7,0-37.7c0-1.8-1.3-3.4-3.1-3.8&#10;&#9;&#9;&#9;c0,0-49.1-9.8-50.1-10c-69.8-36.9-123.4-42-170.8-42c-52.2,0-90.3,15.2-91.9,15.8c-0.1,0-0.2,0.1-0.3,0.2c0,0-64.8,33.4-66.1,34.1&#10;&#9;&#9;&#9;c-97.2,5.5-133.9,28.6-135.4,29.6c-0.5,0.3-0.9,0.7-1.2,1.2L760.7,189v42.9c0,1.6,1,3.1,2.6,3.7l31,10.8c1.2,0.4,2.5,0.2,3.5-0.5&#10;&#9;&#9;&#9;c1-0.7,1.6-1.9,1.6-3.2v-20.6c0-22.9,18.6-41.5,41.5-41.5c22.9,0,41.5,18.6,41.5,41.5v20.6c0,2.1,1.7,3.9,3.9,3.9h50.7h3.8h131.7&#10;&#9;&#9;&#9;h2.3h68.5c2.1,0,3.9-1.7,3.9-3.9v-20.6c0-22.9,18.6-41.5,41.5-41.5c22.9,0,41.5,18.6,41.5,41.5v13.2c0,1.1,0.5,2.1,1.3,2.9&#10;&#9;&#9;&#9;c0.8,0.7,1.9,1.1,3,1c1.6-0.2,39.8-4.1,54.8-8.9c13.3-4.2,15.1-26.7,15.1-38.8C1304.2,187.7,1304,185,1303.9,184z M1281.6,180.4&#10;&#9;&#9;&#9;c-1.6-2.6-9.7-15.8-14.1-23h16.6v23H1281.6z M773.6,180.8h16.2c-1.6,3.7-2.7,6.2-3.6,8.2h-16.4&#10;&#9;&#9;&#9;C770.6,187.7,772.7,182.3,773.6,180.8z M1068.2,238.8H940.7v-94.2h145.3L1068.2,238.8z M1095.2,136.8l5.6-29.5&#10;&#9;&#9;&#9;c21.5,1.6,45.7,5.4,72.5,14.1c6.2,2.5,5.6,8.1,5.3,9.7c-0.6,2.8-2.5,5.7-5.1,5.7c0,0-12,0-30.4,0H1095.2L1095.2,136.8z&#10;&#9;&#9;&#9; M1087.3,136.8H952.8c13.5-7,31.5-16.3,31.8-16.4c4.5-1.7,39.1-14.2,84.1-14.2c7.6,0,15.7,0.1,24.3,0.6L1087.3,136.8z&#10;&#9;&#9;&#9; M1286.7,222.8c-11.5,3.6-38.5,7-49,8.1c0-3.9,0-8.8,0-8.8c0-27.2-22.1-49.2-49.2-49.2c-27.1,0-49.2,22.1-49.2,49.2&#10;&#9;&#9;&#9;c0,0,0,11.6,0,16.7h-63.2l17.7-94.2h79.6c6.1,0,11.3-4.9,12.7-11.9c1.2-6.1-0.7-14.6-10.2-18.5c-42.3-13.8-77.9-15.7-107.2-15.7&#10;&#9;&#9;&#9;c-46.9,0-83.1,13.3-87.1,14.8c-0.1,0.1-0.3,0.1-0.4,0.2L935,137.3c0,0-0.1,0-0.1,0.1c-0.3,0.2-0.7,0.4-0.9,0.7&#10;&#9;&#9;&#9;c0,0-0.1,0.1-0.1,0.1c-0.2,0.3-0.4,0.6-0.6,0.9c0,0,0,0.1-0.1,0.1c-0.2,0.3-0.2,0.7-0.3,1.1c0,0.1,0,0.2,0,0.2c0,0.1,0,0.2,0,0.3&#10;&#9;&#9;&#9;v98.1h-42.8c0-5.1,0-16.7,0-16.7c0-27.2-22.1-49.2-49.2-49.2c-27.1,0-49.2,22.1-49.2,49.2c0,0,0,9.2,0,15.1&#10;&#9;&#9;&#9;c-6.4-2.2-19.6-6.9-23.2-8.1v-32.4h20.4c1.5,0,2.9-0.9,3.6-2.3l7-16c0.5-1.2,0.4-2.6-0.3-3.7c-0.7-1.1-1.9-1.8-3.2-1.8h-17.2&#10;&#9;&#9;&#9;c0.1-0.2,0.2-0.3,0.3-0.4c5.2-3,43.2-23.1,131.8-28c0.5,0,1.1-0.2,1.6-0.4c0,0,66.3-34.2,66.7-34.3c1.7-0.7,39.2-15.2,88.9-15.2&#10;&#9;&#9;&#9;c46.6,0,99.1,5,167.7,41.4c0.3,0.2,0.7,0.3,1.1,0.4c0,0,42,8.4,47.5,9.5v3.7h-23.5c-1.4,0-2.7,0.8-3.4,2c-0.7,1.2-0.7,2.7,0.1,3.9&#10;&#9;&#9;&#9;l18.9,30.7c0.7,1.1,2,1.8,3.3,1.8h8.5c0,0,3.7,0,7.1,0h1.3c0,0.9,0.1,1.6,0.1,2.6C1296.4,202.9,1294.3,220.4,1286.7,222.8z"/>
	</g>
</g></svg>