<svg xmlns="http://www.w3.org/2000/svg" viewBox="0 0 497 497" width="497" height="497">
	<style>
		tspan { white-space:pre }
		.shp0 { fill: #fed2a4 } 
		.shp1 { fill: #ffbd86 } 
	</style>
	<g id="Layer">
		<path id="Layer" class="shp0" d="M18.28 486.25L75.53 315.72C82.29 295.59 97.84 279.63 117.78 272.35L229.34 231.61L235.09 229.51C249.6 224.2 263.68 231.59 269.11 246.05C274.52 260.43 267.4 275.48 253.13 281.14L221.98 293.28C210.13 297.97 202.31 313.36 206.96 325.23C208.11 328.16 211.8 330.73 213.86 332.86C214.81 333.84 215.84 334.73 216.94 335.53C222.99 339.89 231.02 341.25 238.51 338.48L389.36 282.73L431.01 206.06C432.52 203.28 434.47 200.89 436.74 198.92C443.56 193.02 453.22 192.98 462.14 196.16L461.14 195.16C474.65 199.99 481.57 214.98 476.47 228.39L436.82 329.05C433.68 337.3 427.53 344.06 419.6 347.95L395.56 360.76L199.41 457.21C193.83 459.95 190.29 465.63 190.29 471.84L190.29 488.84C190.29 493.35 186.64 497 182.14 497L26.01 497C20.44 497 16.51 491.53 18.28 486.25L18.28 486.25Z" />
		<g id="Layer">
			<path id="Layer" class="shp1" d="M462.14 194.16C454.06 191.28 445.38 192.69 438.75 197.37C448.06 203.94 452.15 216.21 447.9 227.39L401.46 349.74C399.77 354.18 397.2 358.18 393.96 361.55L395.56 360.76L421.6 347.95C429.53 344.06 435.68 337.3 438.81 329.05L477.47 227.39C482.57 213.98 475.65 198.99 462.14 194.16Z" />
		</g>
		<path id="Layer" class="shp1" d="M241.55 246.05C246.96 260.43 239.84 276.49 225.56 282.14L192.41 295.28C180.57 299.97 174.75 313.36 179.4 325.23C184 336.95 197.14 342.84 208.95 338.48L216.95 335.52C213.47 333.01 210.64 329.51 208.96 325.23C204.31 313.36 210.13 299.97 221.98 295.28L255.12 282.14C269.4 276.49 276.52 260.43 271.11 246.05C265.67 231.59 249.6 224.21 235.09 229.51L229.33 231.61C234.76 234.75 239.17 239.72 241.55 246.05L241.55 246.05Z" />
		<g id="Layer">
		</g>
	</g>
</svg>