<svg xmlns="http://www.w3.org/2000/svg" viewBox="0 0 497 497" width="497" height="497">
	<style>
		tspan { white-space:pre }
		.shp0 { fill: #fe646f } 
		.shp1 { fill: #fd4755 } 
	</style>
	<g id="Layer">
		<path id="Layer" class="shp0" d="M205.18 21.56C176.44 50.3 176.44 96.91 205.18 125.65L310.63 231.11L323.51 242.76C326.49 245.75 331.33 245.75 334.31 242.76L450.21 125.65C478.95 96.91 480.17 52.74 451.43 24C432.36 4.94 406.67 -3.92 382.32 2.3C369.94 5.45 358.23 11.88 348.55 21.56L328.91 41.2L309.27 21.56C280.53 -7.19 233.93 -7.19 205.18 21.56L205.18 21.56Z" />
		<g id="Layer">
			<path id="Layer" class="shp1" d="M452.64 21.56C433.58 2.5 406.67 -3.91 382.32 2.31C394.69 5.47 406.4 11.88 416.09 21.56C444.83 50.3 444.83 96.91 416.09 125.65L310.63 231.11L323.51 243.98C326.49 246.96 331.33 246.96 334.31 243.98L452.64 125.65C481.39 96.91 481.39 50.3 452.64 21.56L452.64 21.56Z" />
		</g>
	</g>
</svg>